<svg width="16" height="16" viewBox="0 0 16 16" fill="none" xmlns="http://www.w3.org/2000/svg">
<g clip-path="url(#clip0_0_648)">
<path d="M12.6667 7.3333H3.33333C2.59695 7.3333 2 7.93026 2 8.66664V13.3333C2 14.0697 2.59695 14.6666 3.33333 14.6666H12.6667C13.403 14.6666 14 14.0697 14 13.3333V8.66664C14 7.93026 13.403 7.3333 12.6667 7.3333Z" stroke="#D9D9D9" stroke-linecap="round" stroke-linejoin="round"/>
<path d="M4.66666 7.3333V4.66664C4.66666 3.78258 5.01785 2.93473 5.64297 2.30961C6.2681 1.68449 7.11594 1.3333 8 1.3333C8.88405 1.3333 9.7319 1.68449 10.357 2.30961C10.9821 2.93473 11.3333 3.78258 11.3333 4.66664V7.3333" stroke="#D9D9D9" stroke-linecap="round" stroke-linejoin="round"/>
</g>
<defs>
<clipPath id="clip0_0_648">
<rect width="16" height="16" fill="white"/>
</clipPath>
</defs>
</svg>
