<svg width="16" height="16" viewBox="0 0 16 16" fill="none" xmlns="http://www.w3.org/2000/svg">
<path d="M13.3333 4.66664H2.66667C1.93029 4.66664 1.33334 5.26359 1.33334 5.99997V12.6666C1.33334 13.403 1.93029 14 2.66667 14H13.3333C14.0697 14 14.6667 13.403 14.6667 12.6666V5.99997C14.6667 5.26359 14.0697 4.66664 13.3333 4.66664Z" stroke="#D9D9D9" stroke-linecap="round" stroke-linejoin="round"/>
<path d="M10.6667 14V3.3333C10.6667 2.97968 10.5262 2.64054 10.2761 2.39049C10.0261 2.14045 9.68696 1.99997 9.33334 1.99997H6.66667C6.31305 1.99997 5.97391 2.14045 5.72386 2.39049C5.47381 2.64054 5.33334 2.97968 5.33334 3.3333V14" stroke="#D9D9D9" stroke-linecap="round" stroke-linejoin="round"/>
</svg>
